<svg width="225" height="88" viewBox="0 0 225 88" fill="none" xmlns="http://www.w3.org/2000/svg">
<path d="M19.65 41.75C20.65 40.2167 21.9 39.0167 23.4 38.15C24.9 37.25 26.5667 36.8 28.4 36.8V45.85H26.05C23.9167 45.85 22.3167 46.3167 21.25 47.25C20.1833 48.15 19.65 49.75 19.65 52.05V65H11.1V37.1H19.65V41.75ZM36.7867 34.2C35.2867 34.2 34.0534 33.7667 33.0867 32.9C32.1534 32 31.6867 30.9 31.6867 29.6C31.6867 28.2667 32.1534 27.1667 33.0867 26.3C34.0534 25.4 35.2867 24.95 36.7867 24.95C38.2534 24.95 39.4534 25.4 40.3867 26.3C41.3534 27.1667 41.8367 28.2667 41.8367 29.6C41.8367 30.9 41.3534 32 40.3867 32.9C39.4534 33.7667 38.2534 34.2 36.7867 34.2ZM41.0367 37.1V65H32.4867V37.1H41.0367ZM61.2328 44.2H56.6328V65H48.0828V44.2H44.9828V37.1H48.0828V36.3C48.0828 32.8667 49.0661 30.2667 51.0328 28.5C52.9995 26.7 55.8828 25.8 59.6828 25.8C60.3161 25.8 60.7828 25.8167 61.0828 25.85V33.1C59.4495 33 58.2995 33.2333 57.6328 33.8C56.9661 34.3667 56.6328 35.3833 56.6328 36.85V37.1H61.2328V44.2ZM63.5504 51.1C63.5504 48.3333 64.1171 45.8667 65.2504 43.7C66.4171 41.5333 67.9671 39.85 69.9004 38.65C71.8671 37.4167 74.0004 36.8 76.3004 36.8C78.0671 36.8 79.6504 37.1167 81.0504 37.75C82.4504 38.35 83.5837 39.2 84.4504 40.3V37.1H93.0004V78.3H84.4504V61.5C83.4837 62.6667 82.3004 63.6 80.9004 64.3C79.5337 65 77.9671 65.35 76.2004 65.35C73.9337 65.35 71.8337 64.75 69.9004 63.55C67.9671 62.35 66.4171 60.6667 65.2504 58.5C64.1171 56.3333 63.5504 53.8667 63.5504 51.1ZM84.4504 51.05C84.4504 49.55 84.1504 48.3 83.5504 47.3C82.9837 46.2667 82.2337 45.5 81.3004 45C80.3671 44.4667 79.3837 44.2 78.3504 44.2C77.3504 44.2 76.3837 44.4667 75.4504 45C74.5171 45.5 73.7504 46.2667 73.1504 47.3C72.5504 48.3333 72.2504 49.6 72.2504 51.1C72.2504 52.6 72.5504 53.8667 73.1504 54.9C73.7504 55.9 74.5171 56.6667 75.4504 57.2C76.3837 57.7 77.3504 57.95 78.3504 57.95C79.3504 57.95 80.3171 57.7 81.2504 57.2C82.2171 56.6667 82.9837 55.8833 83.5504 54.85C84.1504 53.8167 84.4504 52.55 84.4504 51.05ZM103.486 34.2C101.986 34.2 100.753 33.7667 99.7859 32.9C98.8526 32 98.3859 30.9 98.3859 29.6C98.3859 28.2667 98.8526 27.1667 99.7859 26.3C100.753 25.4 101.986 24.95 103.486 24.95C104.953 24.95 106.153 25.4 107.086 26.3C108.053 27.1667 108.536 28.2667 108.536 29.6C108.536 30.9 108.053 32 107.086 32.9C106.153 33.7667 104.953 34.2 103.486 34.2ZM107.736 37.1V65H99.1859V37.1H107.736ZM160.128 36.8C163.594 36.8 166.344 37.85 168.378 39.95C170.444 42.05 171.478 44.9667 171.478 48.7V65H162.978V49.85C162.978 48.05 162.494 46.6667 161.528 45.7C160.594 44.7 159.294 44.2 157.628 44.2C155.961 44.2 154.644 44.7 153.678 45.7C152.744 46.6667 152.278 48.05 152.278 49.85V65H143.778V49.85C143.778 48.05 143.294 46.6667 142.328 45.7C141.394 44.7 140.094 44.2 138.428 44.2C136.761 44.2 135.444 44.7 134.478 45.7C133.544 46.6667 133.078 48.05 133.078 49.85V65H124.528V37.1H133.078V40.6C133.944 39.4333 135.078 38.5167 136.478 37.85C137.878 37.15 139.461 36.8 141.228 36.8C143.328 36.8 145.194 37.25 146.828 38.15C148.494 39.05 149.794 40.3333 150.728 42C151.694 40.4667 153.011 39.2167 154.678 38.25C156.344 37.2833 158.161 36.8 160.128 36.8ZM175.757 51C175.757 48.1333 176.291 45.6167 177.357 43.45C178.457 41.2833 179.941 39.6167 181.807 38.45C183.674 37.2833 185.757 36.7 188.057 36.7C189.891 36.7 191.557 37.0833 193.057 37.85C194.591 38.6167 195.791 39.65 196.657 40.95V28H205.207V65H196.657V61C195.857 62.3333 194.707 63.4 193.207 64.2C191.741 65 190.024 65.4 188.057 65.4C185.757 65.4 183.674 64.8167 181.807 63.65C179.941 62.45 178.457 60.7667 177.357 58.6C176.291 56.4 175.757 53.8667 175.757 51ZM196.657 51.05C196.657 48.9167 196.057 47.2333 194.857 46C193.691 44.7667 192.257 44.15 190.557 44.15C188.857 44.15 187.407 44.7667 186.207 46C185.041 47.2 184.457 48.8667 184.457 51C184.457 53.1333 185.041 54.8333 186.207 56.1C187.407 57.3333 188.857 57.95 190.557 57.95C192.257 57.95 193.691 57.3333 194.857 56.1C196.057 54.8667 196.657 53.1833 196.657 51.05ZM215.393 65.4C213.893 65.4 212.66 64.9667 211.693 64.1C210.76 63.2 210.293 62.1 210.293 60.8C210.293 59.4667 210.76 58.35 211.693 57.45C212.66 56.55 213.893 56.1 215.393 56.1C216.86 56.1 218.06 56.55 218.993 57.45C219.96 58.35 220.443 59.4667 220.443 60.8C220.443 62.1 219.96 63.2 218.993 64.1C218.06 64.9667 216.86 65.4 215.393 65.4Z" fill="white"/>
</svg>
